<svg id="visual" viewBox="0 0 900 600" width="900" height="600" xmlns="http://www.w3.org/2000/svg" xmlns:xlink="http://www.w3.org/1999/xlink" version="1.1"><rect x="0" y="0" width="900" height="600" fill="#ffffff"></rect><path d="M531 600L539 583.3C547 566.7 563 533.3 570.8 500C578.7 466.7 578.3 433.3 565.2 400C552 366.7 526 333.3 519 300C512 266.7 524 233.3 528.8 200C533.7 166.7 531.3 133.3 517.5 100C503.7 66.7 478.3 33.3 465.7 16.7L453 0L900 0L900 16.7C900 33.3 900 66.7 900 100C900 133.3 900 166.7 900 200C900 233.3 900 266.7 900 300C900 333.3 900 366.7 900 400C900 433.3 900 466.7 900 500C900 533.3 900 566.7 900 583.3L900 600Z" fill="#6469ff" stroke-linecap="round" stroke-linejoin="miter"></path></svg>