<svg id="visual" viewBox="0 0 960 540" width="960" height="540" xmlns="http://www.w3.org/2000/svg" xmlns:xlink="http://www.w3.org/1999/xlink" version="1.1"><g stroke-width="1" stroke-linejoin="bevel"><path d="M548.3 289L531.3 345L659 366Z" fill="#297ea6" stroke="#297ea6"></path><path d="M659 366L665 259L548.3 289Z" fill="#00101c" stroke="#00101c"></path><path d="M670 488L706.7 378L659 366Z" fill="#1d4e6b" stroke="#1d4e6b"></path><path d="M659 366L706.7 378L665 259Z" fill="#112e42" stroke="#112e42"></path><path d="M531.3 345L554.3 462L659 366Z" fill="#297ea6" stroke="#297ea6"></path><path d="M665 259L551.3 190L548.3 289Z" fill="#081a28" stroke="#081a28"></path><path d="M398.7 347L444.7 431L531.3 345Z" fill="#00101c" stroke="#00101c"></path><path d="M706.7 378L729.7 232L665 259Z" fill="#081a28" stroke="#081a28"></path><path d="M665 259L631 143L551.3 190Z" fill="#1d4e6b" stroke="#1d4e6b"></path><path d="M554.3 462L670 488L659 366Z" fill="#1d4e6b" stroke="#1d4e6b"></path><path d="M398.7 347L531.3 345L392.7 250Z" fill="#0c2435" stroke="#0c2435"></path><path d="M531.3 345L444.7 431L554.3 462Z" fill="#00101c" stroke="#00101c"></path><path d="M729.7 232L631 143L665 259Z" fill="#081a28" stroke="#081a28"></path><path d="M392.7 250L531.3 345L548.3 289Z" fill="#081a28" stroke="#081a28"></path><path d="M670 488L750.7 471L706.7 378Z" fill="#277297" stroke="#277297"></path><path d="M706.7 378L767.7 215L729.7 232Z" fill="#297ea6" stroke="#297ea6"></path><path d="M876.3 379L767.7 215L706.7 378Z" fill="#0c2435" stroke="#0c2435"></path><path d="M729.7 232L676 93L631 143Z" fill="#19435d" stroke="#19435d"></path><path d="M554.3 462L663 540L670 488Z" fill="#15384f" stroke="#15384f"></path><path d="M670 488L774.7 540L750.7 471Z" fill="#00101c" stroke="#00101c"></path><path d="M511.3 540L663 540L554.3 462Z" fill="#205a7a" stroke="#205a7a"></path><path d="M404.7 213L548.3 289L551.3 190Z" fill="#15384f" stroke="#15384f"></path><path d="M404.7 213L392.7 250L548.3 289Z" fill="#1d4e6b" stroke="#1d4e6b"></path><path d="M444.7 431L511.3 540L554.3 462Z" fill="#1d4e6b" stroke="#1d4e6b"></path><path d="M503.3 120L404.7 213L551.3 190Z" fill="#277297" stroke="#277297"></path><path d="M631 143L503.3 120L551.3 190Z" fill="#00101c" stroke="#00101c"></path><path d="M767.7 215L676 93L729.7 232Z" fill="#1d4e6b" stroke="#1d4e6b"></path><path d="M631 143L544.3 0L503.3 120Z" fill="#297ea6" stroke="#297ea6"></path><path d="M663 540L774.7 540L670 488Z" fill="#081a28" stroke="#081a28"></path><path d="M750.7 471L843.3 451L706.7 378Z" fill="#112e42" stroke="#112e42"></path><path d="M774.7 540L843.3 451L750.7 471Z" fill="#297ea6" stroke="#297ea6"></path><path d="M444.7 431L412.7 540L511.3 540Z" fill="#1d4e6b" stroke="#1d4e6b"></path><path d="M342 474L412.7 540L444.7 431Z" fill="#0c2435" stroke="#0c2435"></path><path d="M322 264L322 320L392.7 250Z" fill="#0c2435" stroke="#0c2435"></path><path d="M392.7 250L322 320L398.7 347Z" fill="#1d4e6b" stroke="#1d4e6b"></path><path d="M398.7 347L342 474L444.7 431Z" fill="#205a7a" stroke="#205a7a"></path><path d="M843.3 451L876.3 379L706.7 378Z" fill="#0c2435" stroke="#0c2435"></path><path d="M324 143L322 264L404.7 213Z" fill="#205a7a" stroke="#205a7a"></path><path d="M404.7 213L322 264L392.7 250Z" fill="#297ea6" stroke="#297ea6"></path><path d="M322 320L342 474L398.7 347Z" fill="#19435d" stroke="#19435d"></path><path d="M428.7 0L401.7 117L503.3 120Z" fill="#0c2435" stroke="#0c2435"></path><path d="M503.3 120L401.7 117L404.7 213Z" fill="#19435d" stroke="#19435d"></path><path d="M876.3 379L889.3 257L767.7 215Z" fill="#246688" stroke="#246688"></path><path d="M767.7 215L751.7 59L676 93Z" fill="#277297" stroke="#277297"></path><path d="M889.3 257L870.3 177L767.7 215Z" fill="#1d4e6b" stroke="#1d4e6b"></path><path d="M844.3 119L751.7 59L767.7 215Z" fill="#15384f" stroke="#15384f"></path><path d="M676 93L544.3 0L631 143Z" fill="#246688" stroke="#246688"></path><path d="M870.3 177L844.3 119L767.7 215Z" fill="#00101c" stroke="#00101c"></path><path d="M401.7 117L324 143L404.7 213Z" fill="#297ea6" stroke="#297ea6"></path><path d="M659 0L544.3 0L676 93Z" fill="#297ea6" stroke="#297ea6"></path><path d="M401.7 117L326 85L324 143Z" fill="#00101c" stroke="#00101c"></path><path d="M774.7 540L869.3 540L843.3 451Z" fill="#1d4e6b" stroke="#1d4e6b"></path><path d="M843.3 451L960 426L876.3 379Z" fill="#112e42" stroke="#112e42"></path><path d="M876.3 379L960 326L889.3 257Z" fill="#297ea6" stroke="#297ea6"></path><path d="M751.7 59L659 0L676 93Z" fill="#19435d" stroke="#19435d"></path><path d="M960 426L960 326L876.3 379Z" fill="#00101c" stroke="#00101c"></path><path d="M889.3 257L960 247L870.3 177Z" fill="#246688" stroke="#246688"></path><path d="M870.3 177L960 156L844.3 119Z" fill="#297ea6" stroke="#297ea6"></path><path d="M239.3 441L299 540L342 474Z" fill="#15384f" stroke="#15384f"></path><path d="M342 474L299 540L412.7 540Z" fill="#00101c" stroke="#00101c"></path><path d="M239.3 441L342 474L322 320Z" fill="#081a28" stroke="#081a28"></path><path d="M231.3 261L322 320L322 264Z" fill="#112e42" stroke="#112e42"></path><path d="M751.7 59L753.7 0L659 0Z" fill="#297ea6" stroke="#297ea6"></path><path d="M867.3 0L753.7 0L751.7 59Z" fill="#246688" stroke="#246688"></path><path d="M428.7 0L326 85L401.7 117Z" fill="#00101c" stroke="#00101c"></path><path d="M324 143L231.3 261L322 264Z" fill="#112e42" stroke="#112e42"></path><path d="M960 326L960 247L889.3 257Z" fill="#0c2435" stroke="#0c2435"></path><path d="M844.3 119L867.3 0L751.7 59Z" fill="#277297" stroke="#277297"></path><path d="M869.3 540L960 426L843.3 451Z" fill="#00101c" stroke="#00101c"></path><path d="M184.3 173L231.3 261L324 143Z" fill="#277297" stroke="#277297"></path><path d="M190.3 331L239.3 441L322 320Z" fill="#00101c" stroke="#00101c"></path><path d="M544.3 0L428.7 0L503.3 120Z" fill="#277297" stroke="#277297"></path><path d="M960 247L960 156L870.3 177Z" fill="#1d4e6b" stroke="#1d4e6b"></path><path d="M138.7 341L190.3 331L111.7 284Z" fill="#081a28" stroke="#081a28"></path><path d="M231.3 261L190.3 331L322 320Z" fill="#15384f" stroke="#15384f"></path><path d="M869.3 540L960 540L960 426Z" fill="#0c2435" stroke="#0c2435"></path><path d="M960 60L867.3 0L844.3 119Z" fill="#246688" stroke="#246688"></path><path d="M428.7 0L319 0L326 85Z" fill="#205a7a" stroke="#205a7a"></path><path d="M326 85L212.3 123L324 143Z" fill="#081a28" stroke="#081a28"></path><path d="M215.3 0L212.3 123L326 85Z" fill="#15384f" stroke="#15384f"></path><path d="M123.7 459L207.3 540L239.3 441Z" fill="#205a7a" stroke="#205a7a"></path><path d="M239.3 441L207.3 540L299 540Z" fill="#081a28" stroke="#081a28"></path><path d="M212.3 123L184.3 173L324 143Z" fill="#0c2435" stroke="#0c2435"></path><path d="M960 156L960 60L844.3 119Z" fill="#19435d" stroke="#19435d"></path><path d="M190.3 331L138.7 341L239.3 441Z" fill="#297ea6" stroke="#297ea6"></path><path d="M111.7 284L190.3 331L231.3 261Z" fill="#1d4e6b" stroke="#1d4e6b"></path><path d="M80.7 204L111.7 284L184.3 173Z" fill="#112e42" stroke="#112e42"></path><path d="M184.3 173L111.7 284L231.3 261Z" fill="#1d4e6b" stroke="#1d4e6b"></path><path d="M138.7 341L123.7 459L239.3 441Z" fill="#112e42" stroke="#112e42"></path><path d="M0 343L123.7 459L138.7 341Z" fill="#297ea6" stroke="#297ea6"></path><path d="M960 60L960 0L867.3 0Z" fill="#0c2435" stroke="#0c2435"></path><path d="M319 0L215.3 0L326 85Z" fill="#19435d" stroke="#19435d"></path><path d="M89.7 61L80.7 204L184.3 173Z" fill="#277297" stroke="#277297"></path><path d="M0 482L117.7 540L123.7 459Z" fill="#0c2435" stroke="#0c2435"></path><path d="M123.7 459L117.7 540L207.3 540Z" fill="#246688" stroke="#246688"></path><path d="M89.7 61L184.3 173L212.3 123Z" fill="#1d4e6b" stroke="#1d4e6b"></path><path d="M111.7 284L0 343L138.7 341Z" fill="#246688" stroke="#246688"></path><path d="M215.3 0L89.7 61L212.3 123Z" fill="#15384f" stroke="#15384f"></path><path d="M0 265L0 343L111.7 284Z" fill="#081a28" stroke="#081a28"></path><path d="M0 265L111.7 284L80.7 204Z" fill="#246688" stroke="#246688"></path><path d="M0 195L0 265L80.7 204Z" fill="#205a7a" stroke="#205a7a"></path><path d="M215.3 0L93.7 0L89.7 61Z" fill="#297ea6" stroke="#297ea6"></path><path d="M0 109L0 195L80.7 204Z" fill="#205a7a" stroke="#205a7a"></path><path d="M0 109L80.7 204L89.7 61Z" fill="#112e42" stroke="#112e42"></path><path d="M0 343L0 482L123.7 459Z" fill="#112e42" stroke="#112e42"></path><path d="M0 482L0 540L117.7 540Z" fill="#0c2435" stroke="#0c2435"></path><path d="M0 0L0 109L89.7 61Z" fill="#15384f" stroke="#15384f"></path><path d="M93.7 0L0 0L89.7 61Z" fill="#15384f" stroke="#15384f"></path></g></svg>