<svg id="visual" viewBox="0 0 900 600" width="900" height="600" xmlns="http://www.w3.org/2000/svg" xmlns:xlink="http://www.w3.org/1999/xlink" version="1.1"><rect x="0" y="0" width="900" height="600" fill="#FFFFFF"></rect><path d="M0 143L37.5 183.3C75 223.7 150 304.3 225 344C300 383.7 375 382.3 450 373C525 363.7 600 346.3 675 330.7C750 315 825 301 862.5 294L900 287L900 0L862.5 0C825 0 750 0 675 0C600 0 525 0 450 0C375 0 300 0 225 0C150 0 75 0 37.5 0L0 0Z" fill="#0068ca" stroke-linecap="round" stroke-linejoin="miter"></path></svg>