<svg id="visual" viewBox="0 0 960 540" width="960" height="540" xmlns="http://www.w3.org/2000/svg" xmlns:xlink="http://www.w3.org/1999/xlink" version="1.1"><rect x="0" y="0" width="960" height="540" fill="#0066ff"></rect><path d="M396 0L387.3 15C378.7 30 361.3 60 353 90C344.7 120 345.3 150 359.3 180C373.3 210 400.7 240 408.2 270C415.7 300 403.3 330 398.3 360C393.3 390 395.7 420 410.3 450C425 480 452 510 465.5 525L479 540L0 540L0 525C0 510 0 480 0 450C0 420 0 390 0 360C0 330 0 300 0 270C0 240 0 210 0 180C0 150 0 120 0 90C0 60 0 30 0 15L0 0Z" fill="#c1f0ff" stroke-linecap="round" stroke-linejoin="miter"></path></svg>